<?xml version="1.0" encoding="UTF-8"?>
<svg xmlns="http://www.w3.org/2000/svg" xmlns:xlink="http://www.w3.org/1999/xlink" viewBox="0 0 30 30" width="30px" height="30px">
<g id="surface921128">
<path style=" stroke:none;fill-rule:nonzero;fill:rgb(100%,100%,100%);fill-opacity:1;" d="M 26.070312 1.46875 L 3.929688 1.46875 C 2.570312 1.46875 1.46875 2.570312 1.46875 3.929688 L 1.46875 26.070312 C 1.46875 27.429688 2.570312 28.53125 3.929688 28.53125 L 16.230469 28.53125 L 16.230469 17.460938 L 12.539062 17.460938 L 12.539062 13.769531 L 16.230469 13.769531 L 16.230469 11.789062 C 16.230469 8.035156 18.058594 6.390625 21.175781 6.390625 C 22.667969 6.390625 23.457031 6.5 23.832031 6.550781 L 23.832031 10.078125 L 21.707031 10.078125 C 20.382812 10.078125 19.921875 10.777344 19.921875 12.191406 L 19.921875 13.769531 L 23.800781 13.769531 L 23.273438 17.460938 L 19.921875 17.460938 L 19.921875 28.53125 L 26.070312 28.53125 C 27.429688 28.53125 28.53125 27.429688 28.53125 26.070312 L 28.53125 3.929688 C 28.53125 2.570312 27.429688 1.46875 26.070312 1.46875 Z M 26.070312 1.46875 "/>
</g>
</svg>
