<?xml version="1.0" encoding="UTF-8"?>
<svg xmlns="http://www.w3.org/2000/svg" xmlns:xlink="http://www.w3.org/1999/xlink" viewBox="0 0 24 24" width="24px" height="24px">
<g id="surface926791">
<path style=" stroke:none;fill-rule:nonzero;fill:rgb(100%,100%,100%);fill-opacity:1;" d="M 10.769531 -0.300781 L 10.769531 2.160156 L 8.980469 2.160156 C 8.132812 2.160156 7.707031 3.183594 8.308594 3.78125 L 11.328125 6.800781 C 11.699219 7.171875 12.300781 7.171875 12.671875 6.800781 L 15.691406 3.78125 C 16.292969 3.183594 15.867188 2.160156 15.019531 2.160156 L 13.230469 2.160156 L 13.230469 -0.300781 Z M 2.160156 2.160156 C 0.800781 2.160156 -0.300781 3.261719 -0.300781 4.621094 L -0.300781 19.378906 C -0.300781 20.738281 0.800781 21.839844 2.160156 21.839844 L 21.839844 21.839844 C 23.199219 21.839844 24.300781 20.738281 24.300781 19.378906 L 24.300781 4.621094 C 24.300781 3.261719 23.199219 2.160156 21.839844 2.160156 L 19.378906 2.160156 C 19.054688 2.160156 18.742188 2.289062 18.511719 2.519531 C 17.734375 3.296875 18.285156 4.621094 19.378906 4.621094 L 21.839844 4.621094 L 21.839844 7.082031 L 12.640625 12.828125 C 12.25 13.074219 11.753906 13.074219 11.359375 12.828125 L 2.160156 7.082031 L 2.160156 4.621094 L 4.621094 4.621094 C 5.714844 4.621094 6.265625 3.296875 5.488281 2.519531 C 5.257812 2.289062 4.945312 2.160156 4.621094 2.160156 Z M 2.160156 2.160156 "/>
</g>
</svg>
