<?xml version="1.0" encoding="UTF-8"?>
<svg xmlns="http://www.w3.org/2000/svg" xmlns:xlink="http://www.w3.org/1999/xlink" viewBox="0 0 24 24" width="24px" height="24px">
<g id="surface920024">
<path style=" stroke:none;fill-rule:nonzero;fill:rgb(100%,100%,100%);fill-opacity:1;" d="M 7.078125 0.929688 C 3.6875 0.929688 0.929688 3.6875 0.929688 7.078125 L 0.929688 16.921875 C 0.929688 20.3125 3.6875 23.070312 7.078125 23.070312 L 16.921875 23.070312 C 20.3125 23.070312 23.070312 20.3125 23.070312 16.921875 L 23.070312 7.078125 C 23.070312 3.6875 20.3125 0.929688 16.921875 0.929688 Z M 7.078125 3.390625 L 16.921875 3.390625 C 18.953125 3.390625 20.609375 5.046875 20.609375 7.078125 L 20.609375 16.921875 C 20.609375 18.953125 18.953125 20.609375 16.921875 20.609375 L 7.078125 20.609375 C 5.046875 20.609375 3.390625 18.953125 3.390625 16.921875 L 3.390625 7.078125 C 3.390625 5.046875 5.046875 3.390625 7.078125 3.390625 Z M 18.148438 4.621094 C 17.46875 4.621094 16.921875 5.171875 16.921875 5.851562 C 16.921875 6.53125 17.46875 7.078125 18.148438 7.078125 C 18.828125 7.078125 19.378906 6.53125 19.378906 5.851562 C 19.378906 5.171875 18.828125 4.621094 18.148438 4.621094 Z M 12 5.851562 C 8.609375 5.851562 5.851562 8.609375 5.851562 12 C 5.851562 15.390625 8.609375 18.148438 12 18.148438 C 15.390625 18.148438 18.148438 15.390625 18.148438 12 C 18.148438 8.609375 15.390625 5.851562 12 5.851562 Z M 12 8.308594 C 14.035156 8.308594 15.691406 9.964844 15.691406 12 C 15.691406 14.035156 14.035156 15.691406 12 15.691406 C 9.964844 15.691406 8.308594 14.035156 8.308594 12 C 8.308594 9.964844 9.964844 8.308594 12 8.308594 Z M 12 8.308594 "/>
</g>
</svg>
