<svg id="UAT" xmlns="http://www.w3.org/2000/svg" viewBox="0 0 987 308"><defs><style>.cls-1{fill:#1b7f76;}</style></defs><path class="cls-1" d="M974,343,829,651h295Zm.35,79,96,195h-186Z" transform="translate(-449 -343)"/><polygon class="cls-1" points="818 0 987 0 987 34 921 34 923 308 886 308 886 34 818 34 818 0"/><path class="cls-1" d="M449,350V566.08h.54c5.2,47.71,47.52,84.92,99,84.92s93.76-37.21,99-84.92H648V350ZM621.27,552.24h-.39c-3.78,38-34.52,67.62-71.88,67.62s-68.11-29.62-71.89-67.62h-.39v-172H621.27Z" transform="translate(-449 -343)"/><path class="cls-1" d="M491.27,547a56.5,56.5,0,0,0,112.46,0Z" transform="translate(-449 -343)"/></svg>